<svg xmlns="http://www.w3.org/2000/svg" viewBox="0 0 512 512" width="512" height="512">
  <defs>
    <linearGradient id="mapGradient" x1="0%" y1="0%" x2="100%" y2="100%">
      <stop offset="0%" style="stop-color:#4CAF50;stop-opacity:1" />
      <stop offset="100%" style="stop-color:#2196F3;stop-opacity:1" />
    </linearGradient>
    <filter id="shadow" x="-20%" y="-20%" width="140%" height="140%">
      <feDropShadow dx="2" dy="2" stdDeviation="3" flood-color="#000000" flood-opacity="0.3"/>
    </filter>
  </defs>
  
  <!-- 背景圓形 -->
  <circle cx="256" cy="256" r="240" fill="url(#mapGradient)" filter="url(#shadow)"/>
  
  <!-- 地圖背景 -->
  <rect x="96" y="96" width="320" height="320" rx="20" fill="#ffffff" opacity="0.9"/>
  
  <!-- 地圖網格線 -->
  <g stroke="#e0e0e0" stroke-width="2" opacity="0.6">
    <line x1="96" y1="156" x2="416" y2="156"/>
    <line x1="96" y1="216" x2="416" y2="216"/>
    <line x1="96" y1="276" x2="416" y2="276"/>
    <line x1="96" y1="336" x2="416" y2="336"/>
    <line x1="156" y1="96" x2="156" y2="416"/>
    <line x1="216" y1="96" x2="216" y2="416"/>
    <line x1="276" y1="96" x2="276" y2="416"/>
    <line x1="336" y1="96" x2="336" y2="416"/>
  </g>
  
  <!-- 主要標記點 -->
  <circle cx="256" cy="200" r="16" fill="#FF5722"/>
  <path d="M256 184 L256 200 L240 216 L272 216 Z" fill="#FF5722"/>
  
  <!-- 次要標記點 -->
  <circle cx="180" cy="280" r="12" fill="#FFC107"/>
  <path d="M180 268 L180 280 L170 290 L190 290 Z" fill="#FFC107"/>
  
  <circle cx="340" cy="160" r="12" fill="#9C27B0"/>
  <path d="M340 148 L340 160 L330 170 L350 170 Z" fill="#9C27B0"/>
  
  <!-- GPS 定位圖示 -->
  <circle cx="256" cy="320" r="20" fill="#2196F3" opacity="0.3"/>
  <circle cx="256" cy="320" r="12" fill="#2196F3"/>
  <circle cx="256" cy="320" r="4" fill="#ffffff"/>
  
  <!-- 導航箭頭 -->
  <path d="M256 340 L246 360 L256 355 L266 360 Z" fill="#2196F3"/>
</svg>